<?xml version="1.0" encoding="UTF-8" standalone="no"?>
<!-- Created with Inkscape (http://www.inkscape.org/) -->

<svg
   version="1.1"
   id="svg1"
   width="1365.3333"
   height="1365.3333"
   viewBox="0 0 1365.3333 1365.3333"
   sodipodi:docname="logo3.svg"
   inkscape:version="1.4.2 (f4327f4, 2025-05-13)"
   inkscape:export-filename="logo3.png"
   inkscape:export-xdpi="300"
   inkscape:export-ydpi="300"
   xmlns:inkscape="http://www.inkscape.org/namespaces/inkscape"
   xmlns:sodipodi="http://sodipodi.sourceforge.net/DTD/sodipodi-0.dtd"
   xmlns="http://www.w3.org/2000/svg"
   xmlns:svg="http://www.w3.org/2000/svg">
  <defs
     id="defs1" />
  <sodipodi:namedview
     id="namedview1"
     pagecolor="#ffffff"
     bordercolor="#000000"
     borderopacity="0.25"
     inkscape:showpageshadow="2"
     inkscape:pageopacity="0.0"
     inkscape:pagecheckerboard="0"
     inkscape:deskcolor="#d1d1d1"
     inkscape:zoom="0.27241567"
     inkscape:cx="222.08708"
     inkscape:cy="822.27282"
     inkscape:window-width="1260"
     inkscape:window-height="770"
     inkscape:window-x="-6"
     inkscape:window-y="953"
     inkscape:window-maximized="1"
     inkscape:current-layer="g1"
     inkscape:export-bgcolor="#ffffffff" />
  <g
     inkscape:groupmode="layer"
     inkscape:label="Image"
     id="g1">
    <path
       style="fill:#202b40;fill-opacity:1;stroke-width:1.2182"
       d="M 640.22967,1245.1958 C 494.18543,1232.7934 371.3677,1177.9405 269.045,1079.4171 183.0798,996.64392 127.79911,894.0905 108.14375,780.9224 c -6.04277,-34.79193 -7.49882,-53.60553 -7.53516,-97.3589 -0.0373,-45.09721 1.30246,-61.38782 8.31492,-101.10157 20.41558,-115.61931 78.61629,-222.62624 164.64363,-302.71125 93.51808,-87.05839 205.40459,-139.4126 334.42983,-156.4873 30.23242,-4.00085 96.20145,-4.86366 129.1145,-1.6887 133.17398,12.84664 248.76311,63.16206 344.65753,150.02783 157.6028,142.76427 220.2637,363.68238 160.8764,567.18857 -25.5746,87.63694 -75.7889,169.34712 -146.5504,238.47102 -93.6452,91.4779 -208.57398,146.8232 -342.63769,165.0008 -17.42278,2.3624 -95.98352,4.3973 -113.22764,2.9329 z m 128.59916,-206.6037 c 25.6132,-12.3584 42.13706,-42.14176 66.49987,-119.86275 13.75332,-43.87524 19.02425,-63.78716 41.12645,-155.36347 24.32155,-100.77147 30.11614,-119.72774 41.46848,-135.65984 6.04238,-8.47994 12.72697,-12.93886 21.55638,-14.37923 13.21453,-2.15571 24.3845,6.5414 53.05982,41.31324 10.94707,13.27442 23.89707,28.94304 28.77757,34.81915 17.3527,20.89205 40.803,36.13581 66.1121,42.9755 10.3393,2.79421 17.3875,3.54183 32.9846,3.49869 22.2862,-0.0616 37.5026,-2.68186 62.8123,-10.81601 16.7123,-5.37107 47.705,-18.36809 46.5228,-19.50967 -0.3529,-0.34075 -13.7832,0.84435 -29.8452,2.63355 -33.8296,3.76837 -49.8008,3.99924 -67.0928,0.96984 -17.1627,-3.00675 -29.4655,-7.81464 -43.9757,-17.18563 -16.851,-10.88251 -30.3574,-24.33156 -51.4287,-51.21006 -40.61364,-51.8068 -70.43595,-73.38684 -104.63529,-75.71648 -16.69345,-1.13712 -25.92973,2.64554 -39.23415,16.06795 -26.12323,26.35516 -34.74349,51.59438 -73.94811,216.51402 -20.00683,84.16134 -34.71262,136.52517 -43.68052,155.53561 -8.45017,17.91311 -17.60524,24.44156 -27.68925,19.74499 -19.33713,-9.00641 -30.98355,-51.68817 -75.83845,-277.93222 -42.57939,-214.76696 -59.43126,-287.44266 -76.30036,-329.05395 -6.88889,-16.99292 -20.89906,-38.18341 -30.69222,-46.42218 -18.32974,-15.42063 -39.43026,-18.57393 -58.99241,-8.816 -19.11634,9.53564 -36.95775,29.91349 -52.53259,60.001 -16.12353,31.14756 -38.08454,87.08039 -53.46945,136.18186 -27.55041,87.92819 -43.78442,122.13297 -73.25228,154.34149 -16.08275,17.57856 -42.56242,34.89172 -64.72165,42.31685 -22.91917,7.6798 -30.64462,8.53884 -75.09424,8.35023 l -42.1434,-0.17882 11.0769,4.56272 c 54.48578,22.44343 111.8311,28.2363 151.2709,15.28095 24.67897,-8.1066 42.60258,-19.39458 62.10695,-39.11386 30.69904,-31.03727 48.70198,-67.76467 72.43431,-147.77222 23.58204,-79.50053 33.50873,-107.60176 48.56401,-137.47869 12.37326,-24.5547 23.9572,-33.65682 38.38405,-30.16056 21.00966,5.0915 37.88198,56.62509 68.21121,208.33847 40.49232,202.55072 51.77761,254.35566 67.97243,312.02731 27.70833,98.67218 46.04119,133.63622 75.36549,143.73632 9.90585,3.4119 17.23074,2.7437 28.26015,-2.5781 z"
       id="path1" />
  </g>
</svg>
