<?xml version="1.0" encoding="UTF-8" standalone="no"?>
<!-- Created with Inkscape (http://www.inkscape.org/) -->

<svg
   version="1.1"
   id="svg1"
   width="1365.3333"
   height="1365.3333"
   viewBox="0 0 1365.3333 1365.3333"
   sodipodi:docname="logo3.svg"
   inkscape:version="1.4.2 (f4327f4, 2025-05-13)"
   inkscape:export-filename="logo3.png"
   inkscape:export-xdpi="300"
   inkscape:export-ydpi="300"
   xmlns:inkscape="http://www.inkscape.org/namespaces/inkscape"
   xmlns:sodipodi="http://sodipodi.sourceforge.net/DTD/sodipodi-0.dtd"
   xmlns="http://www.w3.org/2000/svg"
   xmlns:svg="http://www.w3.org/2000/svg">
  <defs
     id="defs1">
    <inkscape:path-effect
       effect="bend_path"
       id="path-effect6"
       is_visible="true"
       lpeversion="1"
       bendpath="M 421.64037,144.32384 H 672.64054"
       prop_scale="1"
       scale_y_rel="false"
       vertical="false"
       hide_knot="false" />
    <inkscape:path-effect
       effect="skeletal"
       id="path-effect5"
       is_visible="true"
       lpeversion="1"
       pattern="M 0,0 H 1"
       copytype="single_stretched"
       prop_scale="1"
       scale_y_rel="false"
       spacing="0"
       normal_offset="0"
       tang_offset="0"
       prop_units="false"
       vertical_pattern="false"
       hide_knot="false"
       fuse_tolerance="0" />
    <inkscape:path-effect
       effect="bend_path"
       id="path-effect4"
       is_visible="true"
       lpeversion="1"
       bendpath="M 421.64037,144.32384 H 672.64054"
       prop_scale="1.07"
       scale_y_rel="false"
       vertical="false"
       hide_knot="false" />
    <inkscape:path-effect
       effect="perspective-envelope"
       up_left_point="421.64037,119.6905"
       up_right_point="672.64054,119.6905"
       down_left_point="421.64037,168.95719"
       down_right_point="672.64054,168.95719"
       id="path-effect3"
       is_visible="true"
       lpeversion="1"
       deform_type="perspective"
       horizontal_mirror="false"
       vertical_mirror="false"
       overflow_perspective="false" />
    <rect
       x="275.1432"
       y="106.42331"
       width="545.09502"
       height="176.50696"
       id="rect3" />
  </defs>
  <sodipodi:namedview
     id="namedview1"
     pagecolor="#ffffff"
     bordercolor="#000000"
     borderopacity="0.25"
     inkscape:showpageshadow="2"
     inkscape:pageopacity="0.0"
     inkscape:pagecheckerboard="0"
     inkscape:deskcolor="#d1d1d1"
     inkscape:zoom="0.27241567"
     inkscape:cx="587.33773"
     inkscape:cy="455.18674"
     inkscape:window-width="1260"
     inkscape:window-height="770"
     inkscape:window-x="-6"
     inkscape:window-y="-6"
     inkscape:window-maximized="1"
     inkscape:current-layer="g1"
     inkscape:export-bgcolor="#ffffffff" />
  <g
     inkscape:groupmode="layer"
     inkscape:label="Image"
     id="g1">
    <path
       style="fill:#202b40;fill-opacity:1;stroke-width:1.4037"
       d="M 635.21466,1350.6028 C 471.91179,1335.8762 334.58017,1270.7451 220.1656,1153.7602 124.04155,1055.4771 62.228118,933.70714 40.250009,799.33355 33.493147,758.02228 31.865036,735.68339 31.824388,683.73149 31.782711,630.18395 33.280762,610.84079 41.121915,563.68545 63.950095,426.40134 129.02859,299.34339 225.22214,204.25202 329.79163,100.8806 454.90021,38.716224 599.17289,18.44207 c 33.8051,-4.750527 107.56994,-5.775008 144.37248,-2.005133 148.91168,15.253848 278.16043,74.997398 385.38703,178.140123 176.2276,169.5155 246.2933,431.82935 179.888,673.46862 -28.5969,104.05837 -84.7453,201.07952 -163.8691,283.15582 -104.7117,108.6191 -233.22188,174.3351 -383.12844,195.9188 -19.48172,2.8051 -107.32626,5.2212 -126.6082,3.4825 z M 779.0109,1105.2856 c 28.64001,-14.6742 47.11655,-50.0384 74.35843,-142.32277 15.37859,-52.09659 21.27241,-75.73964 45.98654,-184.47556 27.19569,-119.65408 33.67506,-142.16237 46.36894,-161.07984 6.75644,-10.06892 14.23098,-15.36335 24.1038,-17.07363 14.77613,-2.55964 27.26609,7.76713 59.33009,49.05455 12.2406,15.76177 26.7211,34.36639 32.1782,41.34357 19.4035,24.80682 45.625,42.90697 73.925,51.02826 11.5613,3.3178 19.4424,4.20553 36.8826,4.1543 24.9199,-0.0731 41.9344,-3.18439 70.2349,-12.84273 18.6874,-6.3775 53.3427,-21.80992 52.0207,-23.16542 -0.3945,-0.40458 -15.4122,1.00259 -33.3721,3.12705 -37.8276,4.47448 -55.6859,4.74862 -75.0215,1.15157 -19.1909,-3.57016 -32.9475,-9.27896 -49.1723,-20.40589 -18.8426,-12.92167 -33.945,-28.8908 -57.5063,-60.80583 -45.4133,-61.51436 -78.7597,-87.13808 -117.00056,-89.90425 -18.66618,-1.35021 -28.99396,3.14125 -43.87062,19.07875 -29.21033,31.2936 -38.84927,61.26217 -82.68686,257.08452 -22.37112,99.93154 -38.81472,162.10737 -48.84242,184.67985 -9.44875,21.2697 -19.68572,29.0215 -30.9614,23.4448 -21.62227,-10.6938 -34.64499,-61.37339 -84.80056,-330.01118 -47.61118,-255.01009 -66.4545,-341.30378 -85.3171,-390.71221 -7.70297,-20.17708 -23.36877,-45.33825 -34.31922,-55.1208 -20.49585,-18.31015 -44.08991,-22.05432 -65.96381,-10.46795 -21.37537,11.32244 -41.32518,35.51871 -58.74055,71.24401 -18.02892,36.984 -42.58516,103.39756 -59.78816,161.69969 -30.80615,104.40421 -48.9586,145.0183 -81.90881,183.26206 -17.9833,20.87244 -47.59219,41.42976 -72.37005,50.24622 -25.62763,9.11883 -34.266,10.13883 -83.96843,9.91489 l -47.123652,-0.21233 12.385895,5.41768 c 60.924577,26.6489 125.046647,33.52723 169.147197,18.1443 27.59538,-9.62562 47.63709,-23.02874 69.44637,-46.44303 34.32687,-36.85304 54.4573,-80.46245 80.99416,-175.46185 26.36882,-94.39738 37.46861,-127.76422 54.30302,-163.23951 13.83547,-29.15577 26.78831,-39.96344 42.92006,-35.81206 23.49244,6.04556 42.35863,67.23553 76.27199,247.37703 45.27745,240.50478 57.89636,302.01694 76.005,370.49513 30.98273,117.16151 51.48207,158.67701 84.27172,170.66961 11.07648,4.0514 19.26698,3.258 31.59979,-3.061 z"
       id="path1" />
  </g>
</svg>
